<?xml version="1.0" encoding="UTF-8"?>
<svg id="OG_Logo" data-name="OG Logo" xmlns="http://www.w3.org/2000/svg" viewBox="0 0 1080 1080">
  <defs>
    <style>
      .cls-1 {
        fill: #fff;
      }

      .cls-2 {
        fill: #10e0fe;
      }
    </style>
  </defs>
  <g id="Arcov">
    <path class="cls-1" d="M266.52,496.13c-3.43-6.19-8.57-10.57-15.43-13.17-6.86-2.59-23.35-3.14-39.76-3.14-20.99,0-43.88,16.57-43.88,44.15,7.06,0,15.36.13,22.51.13,0-23.4,27.7-21.2,34.92-21.2,8.53,0,14.3,1.47,17.31,4.39,3.01,2.93,4.52,7.65,4.52,14.17v8.03c-24.95,0-83.53-1.73-83.53,43.9,0,29.31,31.27,34.37,38.63,34.37h69.86v-86.04c0-10.87-1.72-19.4-5.14-25.59ZM210.08,584.43c-5.69,0-17.9-1.25-20.57-3.76-2.68-2.51-4.01-6.27-4.01-11.29,0-15.32,47.71-21.07,61.21-21.07v36.12h-36.62Z"/>
    <path class="cls-1" d="M321.67,479.08c-18.41,0-33.33,14.92-33.33,33.33v92.85h25.08v-92.85c1.05-10.64,11.69-8.85,58.7-8.85v-24.48h-50.46Z"/>
    <path class="cls-1" d="M463.15,508.23c-21.45-13.02-65.11-10-65.11,31.77s33.96,51.72,65.11,36.4v24.51c-13.53,7.66-91.03,17.83-91.03-60.91s86.18-65.47,91.03-55.26v23.49Z"/>
    <path class="cls-1" d="M532.48,478.75c-35.15,0-63.65,28.49-63.65,63.65s28.49,63.65,63.65,63.65,63.65-28.49,63.65-63.65-28.49-63.65-63.65-63.65ZM532.48,584.83c-22.48,0-40.71-19-40.71-42.43s18.23-42.43,40.71-42.43,40.71,19,40.71,42.43-18.23,42.43-40.71,42.43Z"/>
    <polygon class="cls-1" points="698.9 497.09 691.91 497.09 656.88 594.32 653.28 584.22 690.98 478.75 683.58 478.75 649.3 573.04 615.83 479.08 589.96 479.08 634.22 605.25 660.77 605.25 660.68 604.99 698.9 497.09"/>
  </g>
  <g id="XR">
    <path class="cls-2" d="M916.83,499.97c0-28.41-20.39-45.95-45.58-45.95h-71.18l-35.34,48.31-34.96-48.31h-42.04l56.69,76.08-71.66,97.96h38.72s25.99-34.14,53.5-70.37l35.44,47.56h41.36l-56.41-74.42c19.76-26.05,37.04-48.91,42.03-55.71,11.41,0,25.13.35,35.24.35,17.12,0,27.22,6.53,27.22,24.16,0,23.26-15.59,29.81-34.78,29.81-9.69,0-19.45,0-29.05-.03l56.85,75.83h31.83s-29.53-39.83-43.15-58.89c0,0,45.28,4.43,45.28-46.39Z"/>
  </g>
</svg>